<svg width="40" height="40" viewBox="0 0 40 40" fill="none" xmlns="http://www.w3.org/2000/svg">
<path d="M39.3333 0H9.33334C8.96517 0 8.66668 0.298499 8.66668 0.666665V10.6666H10V1.33333H38.6666V37.9999C38.673 38.3505 38.4025 38.6442 38.0526 38.6666C37.9953 38.6666 37.938 38.6619 37.8806 38.6606C37.7626 38.6573 37.6446 38.6546 37.5286 38.6426C37.5186 38.6426 37.5093 38.6426 37.4993 38.6386C35.322 38.4006 33.602 36.6823 33.362 34.5053C33.362 34.4959 33.3586 34.4859 33.3573 34.4766C33.3411 34.3182 33.3331 34.1591 33.3333 33.9999V32.6666C33.3333 32.2984 33.0348 31.9999 32.6666 31.9999H10V20H8.66668V31.9999H3.33335C2.96519 31.9999 2.66669 32.2984 2.66669 32.6666V33.9999C2.67035 37.3121 5.35452 39.9963 8.66668 39.9999H38.0666C39.1484 39.9716 40.0083 39.0821 39.9999 37.9999V0.666665C39.9999 0.298499 39.7015 0 39.3333 0ZM8.66668 38.6666C6.0906 38.6637 4.00293 36.576 4.00002 33.9999V33.3333H32V33.9999C32.0009 34.2198 32.0135 34.4394 32.038 34.6579C32.044 34.7159 32.0553 34.7719 32.0633 34.8293C32.0853 34.9906 32.112 35.1513 32.1473 35.3093C32.1593 35.3646 32.1746 35.4193 32.1886 35.4746C32.2293 35.6353 32.2753 35.7933 32.3286 35.9493C32.344 35.9939 32.36 36.0379 32.3766 36.0826C32.4373 36.2479 32.506 36.4093 32.5813 36.5686C32.5973 36.6013 32.612 36.6353 32.628 36.6653C32.7115 36.8342 32.8033 36.9983 32.9033 37.1579C32.9166 37.1793 32.9286 37.2013 32.942 37.2246C33.0506 37.3948 33.168 37.5595 33.2933 37.7179L33.3146 37.7466C33.4601 37.9293 33.616 38.1036 33.7813 38.2686C33.9249 38.4108 34.0737 38.5442 34.228 38.6686L8.66668 38.6666Z" fill="#4985FF"/>
<path d="M22 18.6667C22.1768 18.6667 22.3463 18.5963 22.4713 18.4713L25.1379 15.8047C25.3982 15.5443 25.3982 15.1223 25.1379 14.862L22.4713 12.1953C22.3463 12.0703 22.1768 12 22 12H3.33333C1.49241 12 0 13.4924 0 15.3333C0 17.1742 1.49241 18.6667 3.33333 18.6667H22ZM21.828 13.4373L23.7239 15.3333L21.828 17.2293L21.354 15.3333L21.828 13.4373ZM5.33332 13.3333H20.48L20.1466 14.6667H6.66665V16H20.1466L20.48 17.3333H5.33332V13.3333ZM1.33333 15.3333C1.33333 14.2287 2.22875 13.3333 3.33333 13.3333H3.99999V17.3333H3.33333C2.22875 17.3333 1.33333 16.4379 1.33333 15.3333Z" fill="#4985FF"/>
<path d="M15.3333 28.6666H35.3333C35.7014 28.6666 35.9999 28.3681 35.9999 27.9999V7.99999C35.9999 7.63183 35.7014 7.33341 35.3331 7.3335C35.1564 7.3335 34.9869 7.40375 34.8619 7.52866L14.862 27.5286C14.6016 27.789 14.6017 28.2111 14.8621 28.4714C14.9871 28.5964 15.1566 28.6666 15.3333 28.6666ZM34.6666 9.60932V11.3333H33.3333V12.6666H34.6666V14H33.3333V15.3333H34.6666V16.6666H33.3333V18H34.6666V19.3333H33.3333V20.6666H34.6666V22H33.3333V23.3333H34.6666V24.6666H33.3333V25.9999H34.6666V27.3333H33.3333V25.9999H31.9999V27.3333H30.6666V25.9999H29.3333V27.3333H28V25.9999H26.6666V27.3333H25.3333V25.9999H24V27.3333H22.6666V25.9999H21.3333V27.3333H20V25.9999H18.6666V27.3333H16.9426L34.6666 9.60932Z" fill="#4985FF"/>
<path d="M24.99 24.6666H31.3333C31.7015 24.6666 32 24.3681 32 23.9999V17.6566C31.9999 17.2884 31.7014 16.99 31.3331 16.9901C31.1564 16.9901 30.987 17.0604 30.862 17.1853L24.5186 23.5286C24.2583 23.789 24.2584 24.2111 24.5188 24.4714C24.6438 24.5963 24.8132 24.6666 24.99 24.6666ZM30.6666 19.2666V23.3333H26.6L30.6666 19.2666Z" fill="#4985FF"/>
<path d="M30.6666 4H17.3333V5.33333H30.6666V4Z" fill="#4985FF"/>
<path d="M32.6666 6.66663H15.3333V7.99996H32.6666V6.66663Z" fill="#4985FF"/>
<path d="M15.3333 20.6666H11.3333V22H15.3333V20.6666Z" fill="#4985FF"/>
<path d="M14 23.3333H11.3333V24.6666H14V23.3333Z" fill="#4985FF"/>
</svg>
