<svg width="30" height="30" viewBox="0 0 30 30" fill="none" xmlns="http://www.w3.org/2000/svg">
<path d="M11.8365 21.0235C11.7231 21.0235 11.609 20.9845 11.5159 20.9052L8.31087 18.1762C8.20032 18.0819 8.13675 17.9443 8.13675 17.7989C8.13675 17.6538 8.20059 17.5162 8.31087 17.4219L11.5159 14.6929C11.724 14.5155 12.0366 14.5406 12.214 14.7487C12.3912 14.9571 12.3663 15.2697 12.1579 15.4469L9.39597 17.7989L12.1579 20.1509C12.3663 20.3283 12.3912 20.6409 12.214 20.8491C12.1159 20.9643 11.9766 21.0235 11.8365 21.0235Z" fill="#4985FF"/>
<path d="M18.1635 21.0235C18.0234 21.0235 17.8841 20.9643 17.7862 20.8491C17.6088 20.6409 17.6339 20.3283 17.8421 20.1509L20.604 17.7989L17.8421 15.4469C17.6339 15.2697 17.6088 14.9571 17.7862 14.7487C17.9634 14.5406 18.2763 14.5155 18.4841 14.6929L21.6891 17.4219C21.7996 17.5162 21.8632 17.6538 21.8632 17.7989C21.8632 17.9443 21.7996 18.0819 21.6891 18.1762L18.4841 20.9052C18.391 20.9845 18.2768 21.0235 18.1635 21.0235Z" fill="#4985FF"/>
<path d="M13.8654 23.0704C13.8314 23.0704 13.7972 23.0668 13.7626 23.0596C13.4951 23.0032 13.3237 22.7404 13.3801 22.4728L15.3775 12.9893C15.4339 12.7217 15.6965 12.5504 15.9643 12.6067C16.2319 12.6631 16.4032 12.9257 16.3468 13.1935L14.3494 22.6771C14.3002 22.9104 14.0946 23.0704 13.8654 23.0704Z" fill="#4985FF"/>
<path d="M26.6745 28.2372H3.32547C1.49193 28.2372 0 26.7456 0 24.9117V5.09433C0 3.26079 1.49193 1.76886 3.32547 1.76886H26.6745C28.5081 1.76886 30 3.26079 30 5.09433V24.9117C30 26.7456 28.5081 28.2372 26.6745 28.2372ZM3.32547 2.75943C2.03807 2.75943 0.990566 3.80693 0.990566 5.09433V24.9117C0.990566 26.1991 2.03807 27.2466 3.32547 27.2466H26.6745C27.9619 27.2466 29.0094 26.1991 29.0094 24.9117V5.09433C29.0094 3.80693 27.9619 2.75943 26.6745 2.75943H3.32547Z" fill="#4985FF"/>
<path d="M29.5047 9.69979H0.495283C0.221661 9.69979 0 9.47813 0 9.20451C0 8.93117 0.221661 8.70923 0.495283 8.70923H29.5047C29.7783 8.70923 30 8.93117 30 9.20451C30 9.47813 29.7783 9.69979 29.5047 9.69979Z" fill="#4985FF"/>
<path d="M8.4624 7.32971C7.59842 7.32971 6.89502 6.62631 6.89502 5.76233C6.89502 4.89807 7.59842 4.19495 8.4624 4.19495C9.32666 4.19495 10.0298 4.89807 10.0298 5.76233C10.0298 6.62631 9.32666 7.32971 8.4624 7.32971ZM8.4624 5.18551C8.14456 5.18551 7.88559 5.44421 7.88559 5.76233C7.88559 6.08045 8.14456 6.33915 8.4624 6.33915C8.78052 6.33915 9.03922 6.08045 9.03922 5.76233C9.03922 5.44421 8.78052 5.18551 8.4624 5.18551Z" fill="#4985FF"/>
<path d="M3.64663 7.31451C2.78238 7.31451 2.07925 6.61139 2.07925 5.74713C2.07925 4.88287 2.78238 4.17975 3.64663 4.17975C4.51089 4.17975 5.21401 4.88287 5.21401 5.74713C5.21401 6.61139 4.51089 7.31451 3.64663 7.31451ZM3.64663 5.17031C3.32879 5.17031 3.06982 5.42929 3.06982 5.74713C3.06982 6.06525 3.32879 6.32395 3.64663 6.32395C3.96475 6.32395 4.22345 6.06525 4.22345 5.74713C4.22345 5.42929 3.96475 5.17031 3.64663 5.17031Z" fill="#4985FF"/>
<path d="M13.2781 7.34463C12.4141 7.34463 11.711 6.64151 11.711 5.77725C11.711 4.91327 12.4141 4.21014 13.2781 4.21014C14.1423 4.21014 14.8455 4.91327 14.8455 5.77725C14.8455 6.64151 14.1423 7.34463 13.2781 7.34463ZM13.2781 5.20043C12.9602 5.20043 12.7015 5.45913 12.7015 5.77725C12.7015 6.09537 12.9602 6.35407 13.2781 6.35407C13.5962 6.35407 13.8549 6.09537 13.8549 5.77725C13.8549 5.45913 13.5962 5.20043 13.2781 5.20043Z" fill="#4985FF"/>
</svg>
